 http://www.imdb.com/title/tt0950502/

User Rating:7.2/10 - 51 votes

Drama

Director:Justin Hardy

Cast:Katrine Bach/Simon Day/Oliver Ford Davies/Iain Glen, and others.

Plot:
In early April 1945 a small British ambulance unit was diverted from frontline battle in northern Germany, to handle an unfolding medical crisis behind enemy lines. A local prison camp had suffered an outbreak of typhus. That prison camp was Bergen-Belsen. The British had no idea of the true scale of this humanitarian catastrophe nor of what it would come to represent.Forty thousand prisoners from across Europe had been herded into a concentration camp of unspeakable squalor; deprived of food, clothing and medical supplies for nearly a month; deprived of humanity for the duration of the war. Over the course of the next four weeks, as the war raged, an international medical team battled against the odds to save their lives...

Cover included.

Info:

General
Complete name                    : The Relief of Belsen-AC3-DVDRip[Eng]2007.avi
Format                           : AVI
Format/Info                      : Audio Video Interleave
File size                        : 1.36 GiB
Duration                         : 1h 39mn
Overall bit rate                 : 1 953 Kbps
Writing application              : VirtualDubMod 1.5.4.1 (build 2178/release)
Writing library                  : VirtualDubMod build 2178/release

Video
Format                           : MPEG-4 Visual
Format profile                   : Simple@L3
Format settings, BVOP            : No
Format settings, QPel            : No
Format settings, GMC             : No warppoints
Format settings, Matrix          : Default
Codec ID                         : XVID
Codec ID/Hint                    : XviD
Duration                         : 1h 39mn
Bit rate                         : 1 687 Kbps
Width                            : 640 pixels
Height                           : 368 pixels
Display aspect ratio             : 16/9
Frame rate                       : 25.000 fps
Resolution                       : 24 bits
Colorimetry                      : 4:2:0
Scan type                        : Progressive
Bits/(Pixel*Frame)               : 0.287
Stream size                      : 1.18 GiB (86%)
Writing library                  : XviD 1.1.2 (UTC 2006-11-01)

Audio
Format                           : AC-3
Format/Info                      : Audio Coding 3
Codec ID                         : 2000
Duration                         : 1h 39mn
Bit rate mode                    : Constant
Bit rate                         : 256 Kbps
Channel(s)                       : 2 channels
Channel positions                : L R
Sampling rate                    : 48.0 KHz
Stream size                      : 183 MiB (13%)
Alignment                        : Split accross interleaves
Interleave, duration             : 40 ms (1.00 video frame)
Interleave, preload duration     : 500 ms

Enjoy...